<?xml version="1.0"?>
<svg xmlns="http://www.w3.org/2000/svg" id="Layer_1" data-name="Layer 1" viewBox="0 0 128 128" width="512px" height="512px"><g><path d="M64,33.25A30.584,30.584,0,1,0,94.583,63.833,30.617,30.617,0,0,0,64,33.25Zm0,57.667A27.084,27.084,0,1,1,91.083,63.833,27.113,27.113,0,0,1,64,90.917Z" data-original="#000000" class="active-path" data-old_color="#000000" fill="#FFC50D"/><path d="M64,25.177a38.657,38.657,0,1,0,38.656,38.656A38.7,38.7,0,0,0,64,25.177ZM64,98.99A35.157,35.157,0,1,1,99.156,63.833,35.2,35.2,0,0,1,64,98.99Z" data-original="#000000" class="active-path" data-old_color="#000000" fill="#FFC50D"/><path d="M20.421,63.833a43.65,43.65,0,0,1,9.95-27.72,1.75,1.75,0,0,0-2.7-2.227,47.084,47.084,0,0,0,.741,60.771,1.75,1.75,0,0,0,2.645-2.293A43.554,43.554,0,0,1,20.421,63.833Z" data-original="#000000" class="active-path" data-old_color="#000000" fill="#FFC50D"/><path d="M99.892,33.364a1.75,1.75,0,1,0-2.667,2.267,43.586,43.586,0,0,1,.4,55.922,1.75,1.75,0,1,0,2.7,2.228,47.087,47.087,0,0,0-.436-60.417Z" data-original="#000000" class="active-path" data-old_color="#000000" fill="#FFC50D"/><path d="M48.808,57.6,44,70.4h4.036l.624-2.112h4.487l.641,2.112h4.139L53.12,57.6Zm.71,7.914,1.4-4.6,1.413,4.6Z" data-original="#000000" class="active-path" data-old_color="#000000" fill="#FFC50D"/><path d="M68.337,63.59a3.165,3.165,0,0,0,1.379-.855,2.864,2.864,0,0,0,.706-1.946,2.967,2.967,0,0,0-.99-2.269,4.032,4.032,0,0,0-2.84-.916h-7.4V70.4h6.824a17.355,17.355,0,0,0,1.771-.174,4.194,4.194,0,0,0,1.5-.419,3.406,3.406,0,0,0,1.265-1.257,3.48,3.48,0,0,0,.463-1.789,3.131,3.131,0,0,0-.65-2.028A3.578,3.578,0,0,0,68.337,63.59ZM63.18,60.2h1.745a1.941,1.941,0,0,1,1.261.315,1.094,1.094,0,0,1,.362.872,1.163,1.163,0,0,1-.362.921,1.979,1.979,0,0,1-1.287.318H63.18Zm3.455,7.09a2.213,2.213,0,0,1-1.44.362H63.18V65.056h2.007a2.317,2.317,0,0,1,1.453.345,1.125,1.125,0,0,1,.414.911A1.22,1.22,0,0,1,66.635,67.285Z" data-original="#000000" class="active-path" data-old_color="#000000" fill="#FFC50D"/><path d="M83.49,64.34a3.913,3.913,0,0,0-1.632-1.418,16.637,16.637,0,0,0-3.713-1.13,3.239,3.239,0,0,1-1.327-.471.714.714,0,0,1-.287-.55.9.9,0,0,1,.349-.711,1.581,1.581,0,0,1,1.038-.292,1.741,1.741,0,0,1,1.937,1.649l3.726-.218a3.935,3.935,0,0,0-1.531-2.9,6.434,6.434,0,0,0-3.739-.912,8.035,8.035,0,0,0-3.146.5,3.792,3.792,0,0,0-1.719,1.379,3.357,3.357,0,0,0-.572,1.863,3.127,3.127,0,0,0,1.117,2.47A8.618,8.618,0,0,0,77.7,65.152a5.049,5.049,0,0,1,2.024.742,1.173,1.173,0,0,1,.437.89,1.187,1.187,0,0,1-.459.92,1.929,1.929,0,0,1-1.3.4,2.091,2.091,0,0,1-1.745-.776,2.879,2.879,0,0,1-.5-1.4l-3.761.236a4.958,4.958,0,0,0,1.423,3.194q1.255,1.255,4.52,1.256a7.7,7.7,0,0,0,3.08-.536,4.254,4.254,0,0,0,1.9-1.575A4.057,4.057,0,0,0,84,66.234,3.6,3.6,0,0,0,83.49,64.34Z" data-original="#000000" class="active-path" data-old_color="#000000" fill="#FFC50D"/></g> </svg>
