<?xml version="1.0"?>
<svg xmlns="http://www.w3.org/2000/svg" xmlns:xlink="http://www.w3.org/1999/xlink" version="1.1" id="Capa_1" x="0px" y="0px" viewBox="0 0 480 480" style="enable-background:new 0 0 480 480;" xml:space="preserve" width="512px" height="512px"><g><g>
	<g>
		<path d="M465.657,434.344l-61.656-61.656V167.616c-0.022-21.867-17.741-39.59-39.608-39.616h-32.784    c-21.867,0.026-39.586,17.749-39.608,39.616v93.072l-18.344-18.344c-3.124-3.123-8.188-3.123-11.312,0l-24,24    c-3.123,3.124-3.123,8.188,0,11.312l53.656,53.656V368H147.409c-26.169,0.026-47.377,21.231-47.408,47.4v17.2    c0.031,26.169,21.239,47.374,47.408,47.4h216.984c20.792-0.057,37.985-16.212,39.336-36.96l26.616,26.616    c3.124,3.123,8.188,3.123,11.312,0l24-24C468.78,442.532,468.78,437.468,465.657,434.344z M308.001,167.616    c0.013-13.034,10.574-23.598,23.608-23.616h32.8c13.028,0.026,23.579,10.588,23.592,23.616v189.072l-80-80V167.616z     M388.001,440.384c-0.013,13.034-10.574,23.598-23.608,23.616H147.409c-17.336-0.018-31.386-14.064-31.408-31.4v-17.2    c0.022-17.336,14.072-31.382,31.408-31.4h152.592c4.418,0,8-3.582,8-8v-28.688l80,80V440.384z M436.001,452.688L255.313,272    l12.688-12.688L448.689,440L436.001,452.688z" data-original="#000000" class="active-path" data-old_color="#000000" fill="#FFC50D"/>
	</g>
</g><g>
	<g>
		<path d="M356.297,0h-16.592c-17.502,0.018-31.686,14.202-31.704,31.704v48.592c0.018,17.502,14.202,31.686,31.704,31.704h16.592    c17.502-0.018,31.686-14.202,31.704-31.704V31.704C387.983,14.202,373.799,0.018,356.297,0z M372.001,80.296    c-0.013,8.668-7.036,15.691-15.704,15.704h-16.592c-8.668-0.013-15.691-7.036-15.704-15.704V31.704    c0.013-8.668,7.036-15.691,15.704-15.704h16.592c8.668,0.013,15.691,7.036,15.704,15.704V80.296z" data-original="#000000" class="active-path" data-old_color="#000000" fill="#FFC50D"/>
	</g>
</g><g>
	<g>
		<path d="M164.401,96h-48.8c-14.949-0.03-29.273,5.996-39.704,16.704l-61.728,65.824c-1.392,1.482-2.167,3.439-2.168,5.472v72    c0.001,2.21,0.916,4.321,2.528,5.832l61.68,57.808c10.414,10.503,24.602,16.395,39.392,16.36h48.8    c30.692-0.035,55.565-24.908,55.6-55.6V151.6C219.966,120.908,195.093,96.035,164.401,96z M204.001,280.4    c-0.026,21.859-17.74,39.573-39.6,39.6h-48.8c-10.627,0.005-20.81-4.265-28.256-11.848l-59.344-55.616V187.2l59.432-63.376    C94.841,116.242,105,111.977,115.601,112h48.8c21.859,0.026,39.574,17.74,39.6,39.6V280.4z" data-original="#000000" class="active-path" data-old_color="#000000" fill="#FFC50D"/>
	</g>
</g><g>
	<g>
		
			<rect x="50.651" y="192.109" transform="matrix(0.9488 -0.3159 0.3159 0.9488 -59.3304 34.2459)" width="50.612" height="16.004" data-original="#000000" class="active-path" data-old_color="#000000" fill="#FFC50D"/>
	</g>
</g><g>
	<g>
		<rect x="68.025" y="214.743" transform="matrix(0.3162 -0.9487 0.9487 0.3162 -175.741 236.2572)" width="16" height="50.6" data-original="#000000" class="active-path" data-old_color="#000000" fill="#FFC50D"/>
	</g>
</g></g> </svg>
