<?xml version="1.0"?>
<svg xmlns="http://www.w3.org/2000/svg" height="512px" viewBox="0 0 512 512" width="512px"><g><path d="m448.816406 241.9375-22.382812-85.242188c-4.378906-20.714843-22.816406-35.695312-44.027344-35.695312h-81.40625v-16c0-24.8125-20.1875-45-45-45s-45 20.1875-45 45v16h-81.40625c-21.210938 0-39.648438 14.980469-44.027344 35.695312l-22.382812 85.242188c-35.757813 5.6875-63.183594 36.726562-63.183594 74.0625v90c0 24.8125 20.1875 45 45 45h15v16c0 24.8125 20.1875 45 45 45s45-20.1875 45-45v-16h212v16c0 24.8125 20.1875 45 45 45s45-20.1875 45-45v-16h15c24.8125 0 45-20.1875 45-45v-90c0-37.335938-27.425781-68.375-63.183594-74.0625zm-59.394531 29.0625c-6.195313 17.457031-22.867187 30-42.421875 30h-182c-19.554688 0-36.226562-12.542969-42.421875-30zm-148.421875-166c0-8.273438 6.730469-15 15-15s15 6.726562 15 15v16h-30zm-126.316406 58.925781c.078125-.285156.144531-.578125.203125-.867187 1.394531-6.988282 7.582031-12.058594 14.707031-12.058594h252.8125c7.125 0 13.3125 5.070312 14.707031 12.058594.0625.292968.125.582031.203125.867187l20.238282 77.074219h-94.339844l34.390625-34.394531c5.859375-5.859375 5.859375-15.355469 0-21.214844-5.855469-5.855469-15.351563-5.855469-21.210938 0l-55.609375 55.609375h-79.570312l34.390625-34.394531c5.859375-5.859375 5.859375-15.355469 0-21.214844-5.855469-5.855469-15.351563-5.855469-21.210938 0l-55.609375 55.609375h-64.339844zm5.316406 303.074219c0 8.269531-6.730469 15-15 15s-15-6.730469-15-15v-16h30zm302 0c0 8.269531-6.730469 15-15 15s-15-6.730469-15-15v-16h30zm60-61c0 8.269531-6.730469 15-15 15h-422c-8.269531 0-15-6.730469-15-15v-90c0-24.8125 20.1875-45 45-45h16.507812c6.96875 34.191406 37.273438 60 73.492188 60h182c36.21875 0 66.523438-25.808594 73.492188-60h16.40625c.03125 0 .0625.003906.09375.003906.023437 0 .046874-.003906.070312-.003906 24.785156.035156 44.9375 20.207031 44.9375 45zm0 0" data-original="#000000" class="active-path" data-old_color="#000000" fill="#FFC50D"/><path d="m317 361h-122c-8.285156 0-15 6.714844-15 15s6.714844 15 15 15h122c8.285156 0 15-6.714844 15-15s-6.714844-15-15-15zm0 0" data-original="#000000" class="active-path" data-old_color="#000000" fill="#FFC50D"/><path d="m430.292969 332.582031-60 30c-7.410157 3.707031-10.414063 12.714844-6.707031 20.125 3.703124 7.414063 12.714843 10.414063 20.121093 6.710938l60-30c7.410157-3.707031 10.414063-12.714844 6.707031-20.125-3.703124-7.410157-12.710937-10.414063-20.121093-6.710938zm0 0" data-original="#000000" class="active-path" data-old_color="#000000" fill="#FFC50D"/><path d="m141.707031 362.582031-60-30c-7.40625-3.703125-16.417969-.699219-20.125 6.710938-3.703125 7.40625-.699219 16.417969 6.707031 20.125l60 30c7.414063 3.703125 16.421876.699219 20.125-6.710938 3.707032-7.410156.703126-16.417969-6.707031-20.125zm0 0" data-original="#000000" class="active-path" data-old_color="#000000" fill="#FFC50D"/><path d="m185.394531 55.605469c5.855469 5.859375 15.355469 5.859375 21.210938 0 5.859375-5.855469 5.859375-15.355469 0-21.210938l-30-30c-5.855469-5.859375-15.351563-5.859375-21.210938 0-5.859375 5.855469-5.859375 15.355469 0 21.210938zm0 0" data-original="#000000" class="active-path" data-old_color="#000000" fill="#FFC50D"/><path d="m326.605469 55.605469 30-30c5.859375-5.855469 5.859375-15.355469 0-21.210938-5.855469-5.859375-15.351563-5.859375-21.210938 0l-30 30c-5.859375 5.855469-5.859375 15.355469 0 21.210938 5.855469 5.859375 15.355469 5.859375 21.210938 0zm0 0" data-original="#000000" class="active-path" data-old_color="#000000" fill="#FFC50D"/></g> </svg>
