<?xml version="1.0"?>
<svg xmlns="http://www.w3.org/2000/svg" xmlns:xlink="http://www.w3.org/1999/xlink" version="1.1" id="Capa_1" x="0px" y="0px" viewBox="0 0 480 480" style="enable-background:new 0 0 480 480;" xml:space="preserve" width="512px" height="512px"><g><g>
	<g>
		<path d="M240,0C107.452,0,0,107.452,0,240s107.452,240,240,240s240-107.452,240-240C479.85,107.514,372.486,0.15,240,0z     M463.8,232h-32c-1.86-45.351-19.787-88.562-50.576-121.912l22.616-22.616C440.612,126.834,461.908,178.167,463.8,232z M248,16.2    c53.833,1.892,105.166,23.188,144.528,59.96l-22.616,22.616C336.562,67.987,293.351,50.06,248,48.2V16.2z M232,16.2v32    c-45.351,1.86-88.562,19.787-121.912,50.576L87.472,76.16C126.834,39.388,178.167,18.092,232,16.2z M76.16,87.472l22.616,22.616    C67.987,143.438,50.06,186.649,48.2,232h-32C18.092,178.167,39.388,126.834,76.16,87.472z M16.2,248h32    c1.86,45.351,19.787,88.562,50.576,121.912L76.16,392.528C39.388,353.166,18.092,301.833,16.2,248z M232,463.8    c-53.838-1.903-105.172-23.214-144.528-60l22.616-22.616C143.432,411.988,186.644,429.929,232,431.8V463.8z M64,240    c0-97.202,78.798-176,176-176s176,78.798,176,176s-78.798,176-176,176C142.844,415.89,64.11,337.156,64,240z M248,463.8v-32    c45.351-1.86,88.562-19.787,121.912-50.576l22.616,22.616C353.166,440.612,301.833,461.908,248,463.8z M403.84,392.528    L403.84,392.528l-22.616-22.616C412.013,336.562,429.94,293.351,431.8,248h32C461.908,301.833,440.612,353.166,403.84,392.528z" data-original="#000000" class="active-path" data-old_color="#000000" fill="#FFC50D"/>
	</g>
</g><g>
	<g>
		<path d="M256,320h-32c-17.673,0-32,14.327-32,32c0,17.673,14.327,32,32,32h32c17.673,0,32-14.327,32-32    C288,334.327,273.673,320,256,320z M256,368h-32c-8.837,0-16-7.163-16-16s7.163-16,16-16h32c8.837,0,16,7.163,16,16    S264.837,368,256,368z" data-original="#000000" class="active-path" data-old_color="#000000" fill="#FFC50D"/>
	</g>
</g><g>
	<g>
		<path d="M224.928,112.872l-1.856-15.888c-79.013,9.388-135.455,81.051-126.067,160.064c1.735,14.599,5.694,28.847,11.739,42.248    l14.576-6.592C115.818,276.149,111.958,258.176,112,240C111.962,175.12,160.496,120.483,224.928,112.872z" data-original="#000000" class="active-path" data-old_color="#000000" fill="#FFC50D"/>
	</g>
</g><g>
	<g>
		<path d="M299.176,108.723c-13.401-6.046-27.649-10.005-42.248-11.739l-1.856,15.888C319.504,120.483,368.038,175.12,368,240    c0.042,18.176-3.818,36.149-11.32,52.704l14.576,6.592C403.977,226.766,371.706,141.444,299.176,108.723z" data-original="#000000" class="active-path" data-old_color="#000000" fill="#FFC50D"/>
	</g>
</g><g>
	<g>
		<path d="M136,304c-13.255,0-24,10.745-24,24s10.745,24,24,24s24-10.745,24-24S149.255,304,136,304z M136,336c-4.418,0-8-3.582-8-8    s3.582-8,8-8s8,3.582,8,8S140.418,336,136,336z" data-original="#000000" class="active-path" data-old_color="#000000" fill="#FFC50D"/>
	</g>
</g><g>
	<g>
		<path d="M344,304c-13.255,0-24,10.745-24,24s10.745,24,24,24s24-10.745,24-24S357.255,304,344,304z M344,336c-4.418,0-8-3.582-8-8    s3.582-8,8-8s8,3.582,8,8S348.418,336,344,336z" data-original="#000000" class="active-path" data-old_color="#000000" fill="#FFC50D"/>
	</g>
</g><g>
	<g>
		<polygon points="297.888,228.416 279.232,233.416 256,220 279.232,206.584 297.888,211.584 302.032,196.136 287.896,192.344     291.688,178.208 276.232,174.072 271.232,192.728 248,206.144 248,179.312 261.656,165.656 250.344,154.344 240,164.688     229.656,154.344 218.344,165.656 232,179.312 232,206.144 208.768,192.728 203.768,174.072 188.312,178.208 192.104,192.344     177.968,196.136 182.112,211.584 200.768,206.584 224,220 200.768,233.416 182.112,228.416 177.968,243.864 192.104,247.656     188.312,261.792 203.768,265.928 208.768,247.272 232,233.856 232,260.688 218.344,274.344 229.656,285.656 240,275.312     250.344,285.656 261.656,274.344 248,260.688 248,233.856 271.232,247.272 276.232,265.928 291.688,261.792 287.896,247.656     302.032,243.864   " data-original="#000000" class="active-path" data-old_color="#000000" fill="#FFC50D"/>
	</g>
</g></g> </svg>
