<?xml version="1.0"?>
<svg xmlns="http://www.w3.org/2000/svg" xmlns:xlink="http://www.w3.org/1999/xlink" version="1.1" id="Capa_1" x="0px" y="0px" viewBox="0 0 512 512" style="enable-background:new 0 0 512 512;" xml:space="preserve" width="512px" height="512px" class=""><g><g>
	<g>
		<path d="M367.814,225.505l-17.965-8.982c-0.449-0.225-0.925-0.234-1.392-0.377l3.422-58.206    c1.967-33.397-19.043-63.434-51.092-73.054c-29.301-8.794-60.263-8.794-89.564,0c-32.04,9.62-53.05,39.658-51.092,73.054    l3.422,58.206c-0.467,0.144-0.943,0.153-1.392,0.377l-17.965,8.982c-4.437,2.219-6.234,7.617-4.015,12.054    c1.572,3.153,4.743,4.967,8.039,4.967c1.347,0,2.722-0.305,4.006-0.943l12.45-6.225l1.473,25.034l-8.956,107.888    c0,29.723,24.172,53.895,53.895,53.895h89.825c29.723,0,53.895-24.172,53.859-54.64l-8.92-107.161l1.473-25.025l12.45,6.225    c1.284,0.647,2.659,0.952,4.006,0.952c3.297,0,6.467-1.814,8.048-4.967C374.047,233.122,372.251,227.723,367.814,225.505z     M300.912,404.211h-89.825c-19.815,0-35.93-16.115-35.966-35.184l8.982-107.789c0.036-0.422,0.045-0.853,0.018-1.276    l-6.063-103.074c-1.473-25.043,14.291-47.58,38.319-54.793c12.962-3.889,26.292-5.83,39.622-5.83s26.66,1.949,39.622,5.83    c24.028,7.213,39.792,29.75,38.319,54.793l-6.063,103.074c-0.027,0.422-0.018,0.853,0.018,1.276l8.947,107.044    C336.842,388.096,320.728,404.211,300.912,404.211z" data-original="#000000" class="active-path" data-old_color="#000000" fill="#FFC50D"/>
	</g>
</g><g>
	<g>
		<path d="M309.895,331.462v-88.199l8.857-53.158c0.728-4.356-1.823-8.596-6.018-9.988l-2.767-0.925    c-34.807-11.614-73.144-11.614-107.951,0l-2.767,0.925c-4.195,1.392-6.746,5.632-6.018,9.988l8.875,53.158v88.199l-8.803,44.032    c-0.53,2.641,0.162,5.38,1.859,7.455c1.707,2.084,4.249,3.297,6.943,3.297h107.789c2.695,0,5.237-1.213,6.943-3.288    c1.698-2.075,2.389-4.815,1.859-7.455L309.895,331.462z M213.064,368.281l5.389-26.947h75.102l5.389,26.947H213.064z     M220.07,323.368v-71.86h71.86v71.86H220.07z M293.304,233.544h-74.617l-6.458-38.741c28.411-8.461,59.131-8.461,87.534,0    L293.304,233.544z" data-original="#000000" class="active-path" data-old_color="#000000" fill="#FFC50D"/>
	</g>
</g><g>
	<g>
		<path d="M217.438,128.386c-3.512-3.512-9.189-3.512-12.701,0l-8.982,8.982c-3.512,3.512-3.512,9.189,0,12.701    c1.752,1.752,4.051,2.632,6.351,2.632s4.599-0.88,6.351-2.632l8.982-8.982C220.951,137.575,220.951,131.898,217.438,128.386z" data-original="#000000" class="active-path" data-old_color="#000000" fill="#FFC50D"/>
	</g>
</g><g>
	<g>
		<path d="M316.245,137.369l-8.982-8.982c-3.512-3.512-9.189-3.512-12.701,0s-3.512,9.189,0,12.701l8.982,8.982    c1.752,1.752,4.051,2.632,6.351,2.632c2.3,0,4.599-0.88,6.351-2.632C319.758,146.558,319.758,140.881,316.245,137.369z" data-original="#000000" class="active-path" data-old_color="#000000" fill="#FFC50D"/>
	</g>
</g><g>
	<g>
		<path d="M327.86,35.93v17.965c34.663,0,62.877,28.214,62.877,62.877h17.965C408.702,72.192,372.44,35.93,327.86,35.93z" data-original="#000000" class="active-path" data-old_color="#000000" fill="#FFC50D"/>
	</g>
</g><g>
	<g>
		<path d="M327.86,0v17.965c54.479,0,98.807,44.328,98.807,98.807h17.965C444.632,52.386,392.246,0,327.86,0z" data-original="#000000" class="active-path" data-old_color="#000000" fill="#FFC50D"/>
	</g>
</g><g>
	<g>
		<path d="M103.298,116.772h17.965c0-34.663,28.214-62.877,62.877-62.877V35.93C139.56,35.93,103.298,72.192,103.298,116.772z" data-original="#000000" class="active-path" data-old_color="#000000" fill="#FFC50D"/>
	</g>
</g><g>
	<g>
		<path d="M67.368,116.772h17.965c0-54.479,44.328-98.807,98.807-98.807V0C119.754,0,67.368,52.386,67.368,116.772z" data-original="#000000" class="active-path" data-old_color="#000000" fill="#FFC50D"/>
	</g>
</g><g>
	<g>
		<path d="M390.737,395.228c0,34.663-28.214,62.877-62.877,62.877v17.965c44.58,0,80.842-36.262,80.842-80.842H390.737z" data-original="#000000" class="active-path" data-old_color="#000000" fill="#FFC50D"/>
	</g>
</g><g>
	<g>
		<path d="M426.667,395.228c0,54.479-44.328,98.807-98.807,98.807V512c64.386,0,116.772-52.386,116.772-116.772H426.667z" data-original="#000000" class="active-path" data-old_color="#000000" fill="#FFC50D"/>
	</g>
</g><g>
	<g>
		<path d="M121.263,395.228h-17.965c0,44.58,36.262,80.842,80.842,80.842v-17.965C149.477,458.105,121.263,429.891,121.263,395.228z    " data-original="#000000" class="active-path" data-old_color="#000000" fill="#FFC50D"/>
	</g>
</g><g>
	<g>
		<path d="M85.333,395.228H67.368C67.368,459.614,119.754,512,184.14,512v-17.965C129.662,494.035,85.333,449.707,85.333,395.228z" data-original="#000000" class="active-path" data-old_color="#000000" fill="#FFC50D"/>
	</g>
</g></g> </svg>
