<?xml version="1.0"?>
<svg xmlns="http://www.w3.org/2000/svg" height="512px" viewBox="0 -106 512 512" width="512px"><g><path d="m482.355469 14.960938-.714844-3.21875c-1.523437-6.859376-7.609375-11.742188-14.640625-11.742188h-422c-7.03125 0-13.117188 4.882812-14.644531 11.742188l-.714844 3.21875c-19.667969 88.511718-29.640625 179.367187-29.640625 270.039062 0 8.285156 6.714844 15 15 15h211 .011719.011719 149.976562.011719.011719 120.976562c8.285156 0 15-6.714844 15-15 0-90.671875-9.972656-181.527344-29.644531-270.039062zm-99.175781 255.039062-44.917969-55.75 13.308593-5.324219c7.691407-3.074219 11.433594-11.804687 8.355469-19.496093-3.074219-7.691407-11.804687-11.433594-19.496093-8.355469l-75 30c-7.691407 3.074219-11.433594 11.804687-8.355469 19.496093 2.347656 5.867188 7.980469 9.433594 13.933593 9.433594 1.851563 0 3.738282-.347656 5.5625-1.078125l32.554688-13.019531 35.527344 44.09375h-111.472656l-44.917969-55.75 13.308593-5.324219c7.691407-3.074219 11.433594-11.804687 8.355469-19.496093-3.074219-7.691407-11.800781-11.433594-19.496093-8.355469l-75 30c-7.691407 3.074219-11.433594 11.804687-8.355469 19.496093 2.347656 5.867188 7.980469 9.433594 13.933593 9.433594 1.851563 0 3.738282-.347656 5.5625-1.078125l32.554688-13.019531 35.527344 44.09375h-164.558594c1-80.585938 10.058594-161.210938 26.972656-240h183.933594v30h-45c-8.285156 0-15 6.714844-15 15v60c0 8.285156 6.714844 15 15 15h120c8.285156 0 15-6.714844 15-15v-60c0-8.285156-6.714844-15-15-15h-45v-30h183.9375c16.910156 78.789062 25.96875 159.414062 26.96875 240zm-82.179688-180v30h-90v-30zm0 0" data-original="#000000" class="active-path" data-old_color="#000000" fill="#FFC50D"/></g> </svg>
